{"title":"The Mummy 2017 720p Esub BluRay 5.1 Dual Audio  English Hindi GO","magnet":"magnet:?xt=urn:btih:65a86e3b2ca27736f95cc3c703ec03808db29d36&dn=The+Mummy+2017+720p+Esub+BluRay+5.1+Dual+Audio++English+Hindi+GO&tr=udp%3A%2F%2Ftracker.leechers-paradise.org%3A6969&tr=udp%3A%2F%2Fzer0day.ch%3A1337&tr=udp%3A%2F%2Fopen.demonii.com%3A1337&tr=udp%3A%2F%2Ftracker.coppersurfer.tk%3A6969&tr=udp%3A%2F%2Fexodus.desync.com%3A6969","uploader":"jatt13","categoryP":"video","categoryS":"hd___movies","size":"887694026","seeders":"2","leechers":"39","description":"[center][img]https://i.imgur.com/WYMgCgQ.jpg[/img]\r\nComplete name                  : D:MoviesDUBlogy 720pThe MummyThe Mummy 2017 720p Esub BluRay 5.1 Dual Audio  English Hindi GOPISAHI\r\nFormat                         : Matroska\r\nFormat version                 : Version 4 / Version 2\r\nFile size                      : 847 MiB\r\nDuration                       : 1 h 50 min\r\nOverall bit rate               : 1 075 kb/s\r\n\r\nVideo\r\nFormat                         : AVC\r\nCodec ID                       : V_MPEG4/ISO/AVC\r\nDuration                       : 1 h 50 min\r\nBit rate                       : 900 kb/s\r\nWidth                          : 1 280 pixels\r\nHeight                         : 534 pixels\r\nDisplay aspect ratio           : 2.40:1\r\nOriginal display aspect ratio  : 2.40:1\r\nFrame rate mode                : Constant\r\nFrame rate                     : 23.976 (24000/1001) FPS\r\nStream size                    : 709 MiB (84%)\r\nWriting library                : x264 core 148\r\n\r\nAudio #1\r\nFormat                         : AAC\r\nDuration                       : 1 h 50 min\r\nBit rate                       : 85.3 kb/s\r\nChannel(s)                     : 6 channels\r\nChannel positions              : Front: L C R, Side: L R, LFE\r\nSampling rate                  : 44.1 kHz\r\nFrame rate                     : 43.066 FPS (1024 SPF)\r\nStream size                    : 67.2 MiB (8%)\r\nLanguage                       : English\r\n\r\nAudio #2\r\nFormat                         : AAC\r\nDuration                       : 1 h 50 min\r\nBit rate                       : 86.9 kb/s\r\nChannel(s)                     : 6 channels\r\nChannel positions              : Front: L C R, Side: L R, LFE\r\nSampling rate                  : 44.1 kHz\r\nFrame rate                     : 43.066 FPS (1024 SPF)\r\nStream size                    : 68.5 MiB (8%)\r\nLanguage                       : Hindi\r\n\r\nText\r\nLanguage                       : English\r\n[img]https://i.imgur.com/2Gbk4Wj.jpg[/img]\r\n[img]https://i.imgur.com/Gcru2X0.jpg[/img]\r\n[img]https://i.imgur.com/3nHu3dL.jpg[/img]\r\n[img]https://i.imgur.com/ce7ch9T.jpg[/img][/center]","last_updated":"2017-09-18T12:09:16.425Z","parsed":{"xt":"urn:btih:65a86e3b2ca27736f95cc3c703ec03808db29d36","dn":"The Mummy 2017 720p Esub BluRay 5.1 Dual Audio  English Hindi GO","tr":["udp://exodus.desync.com:6969","udp://open.demonii.com:1337","udp://tracker.coppersurfer.tk:6969","udp://tracker.leechers-paradise.org:6969","udp://zer0day.ch:1337"],"infoHash":"65a86e3b2ca27736f95cc3c703ec03808db29d36","infoHashBuffer":{"type":"Buffer","data":[101,168,110,59,44,162,119,54,249,92,195,199,3,236,3,128,141,178,157,54]},"name":"The Mummy 2017 720p Esub BluRay 5.1 Dual Audio  English Hindi GO","announce":["udp://exodus.desync.com:6969","udp://open.demonii.com:1337","udp://tracker.coppersurfer.tk:6969","udp://tracker.leechers-paradise.org:6969","udp://zer0day.ch:1337"],"urlList":[]}}